<svg width="417" height="417" viewBox="0 0 417 417" fill="none" xmlns="http://www.w3.org/2000/svg">
<path d="M211 206.5C276.5 125.5 231.5 60 209 21.5C186 60.5 138.5 126.5 211 206.5Z" fill="#93AB9C" stroke="#93AB9C"/>
<path d="M211 207C276.5 288 231.5 353.5 209 392C186 353 138.5 287 211 207Z" fill="#93AB9C" stroke="#93AB9C"/>
<path d="M211 206.106C130 140.606 64.5 185.606 26 208.106C65 231.106 131 278.606 211 206.106Z" fill="#93AB9C" stroke="#93AB9C"/>
<path d="M211.5 206.106C292.5 140.606 358 185.606 396.5 208.106C357.5 231.106 291.5 278.606 211.5 206.106Z" fill="#93AB9C" stroke="#93AB9C"/>
<path d="M56.5 104.5C85.5 92.5 87.5 88.5 98 63C109 88.5 112 91.5 139.5 104.5C111.5 116 109 121.5 98 146C86.5 121.5 85 116.5 56.5 104.5Z" fill="#93AB9C"/>
<path d="M56.5 327.5C85.5 315.5 87.5 311.5 98 286C109 311.5 112 314.5 139.5 327.5C111.5 339 109 344.5 98 369C86.5 344.5 85 339.5 56.5 327.5Z" fill="#93AB9C"/>
<path d="M278 104.5C307 92.5 309 88.5 319.5 63C330.5 88.5 333.5 91.5 361 104.5C333 116 330.5 121.5 319.5 146C308 121.5 306.5 116.5 278 104.5Z" fill="#93AB9C"/>
<path d="M278 327.5C307 315.5 309 311.5 319.5 286C330.5 311.5 333.5 314.5 361 327.5C333 339 330.5 344.5 319.5 369C308 344.5 306.5 339.5 278 327.5Z" fill="#93AB9C"/>
</svg>
